<?xml version="1.0" standalone="no"?>
<!DOCTYPE svg PUBLIC "-//W3C//DTD SVG 20010904//EN"
 "http://www.w3.org/TR/2001/REC-SVG-20010904/DTD/svg10.dtd">
<svg version="1.0" xmlns="http://www.w3.org/2000/svg"
 width="480.000000pt" height="222.000000pt" viewBox="0 0 480.000000 222.000000"
 preserveAspectRatio="xMidYMid meet">
<metadata>
Created by potrace 1.16, written by Peter Selinger 2001-2019
</metadata>
<g transform="translate(0.000000,222.000000) scale(0.100000,-0.100000)"
fill="#000000" stroke="none">
<path d="M20 2025 l0 -195 273 -2 272 -3 0 -25 0 -25 -272 -3 -273 -2 0 -145
0 -145 275 0 275 0 0 -25 0 -25 -272 -2 -273 -3 -3 -142 -3 -143 276 0 275 0
0 -25 0 -25 -272 -2 -273 -3 -3 -147 -3 -148 276 0 275 0 0 -25 0 -25 -275 0
-276 0 3 -152 3 -153 273 -3 272 -2 0 -25 0 -25 -275 0 -275 0 0 -190 0 -190
2375 0 2375 0 5 23 c3 12 4 96 3 187 l-3 165 -272 3 -273 2 0 25 0 25 273 2
272 3 0 150 0 150 -272 3 -273 2 0 25 0 25 273 2 272 3 0 145 0 145 -272 3
-273 2 0 25 0 25 273 2 272 3 0 140 0 140 -272 3 -273 2 0 25 0 25 273 2 272
3 3 143 3 142 -28 0 c-16 0 -138 2 -273 3 l-245 2 -3 27 -3 28 273 2 273 3 0
190 0 190 -2377 3 -2378 2 0 -195z m1586 -212 c-3 -10 -35 -128 -71 -263 -102
-383 -213 -798 -264 -990 l-47 -175 -199 -3 c-109 -1 -202 1 -205 5 -4 5 33
157 81 338 180 668 258 962 274 1025 9 36 19 68 21 72 3 5 97 8 210 8 191 0
205 -1 200 -17z m1360 0 c-3 -10 -16 -61 -31 -113 -14 -52 -30 -112 -35 -132
l-11 -38 -347 0 -347 0 -29 -107 c-16 -60 -31 -123 -33 -140 l-5 -33 316 0
c313 0 316 0 316 -21 0 -11 -17 -79 -37 -150 l-36 -129 -323 0 -322 0 -11 -32
c-18 -58 -61 -225 -61 -237 0 -8 97 -11 340 -11 387 0 352 10 324 -95 -9 -33
-23 -89 -33 -125 l-17 -65 -552 -3 c-323 -1 -552 2 -552 7 0 8 72 279 304
1149 42 156 76 285 76 288 0 2 250 4 556 4 524 0 555 -1 550 -17z m644 2 c0
-14 -69 -280 -174 -670 -104 -385 -116 -432 -116 -448 0 -16 25 -17 321 -17
300 0 320 -1 315 -17 -3 -10 -16 -61 -31 -113 -14 -52 -30 -112 -35 -132 l-11
-38 -524 0 c-288 0 -526 4 -529 8 -2 4 4 39 15 77 19 67 83 307 99 370 34 133
263 982 267 988 2 4 94 7 204 7 169 0 199 -2 199 -15z"/>
</g>
</svg>
