<svg width="263" height="89" viewBox="0 0 263 89" fill="none" xmlns="http://www.w3.org/2000/svg">
<path d="M131.562 78H115.196L127.303 8.32812H143.62L131.562 78ZM191.399 48.4756H165.798L162.879 65.0801H193.169L190.92 78H144.265L156.324 8.32812H203.075L200.826 21.2959H170.488L167.904 35.9863H193.552L191.399 48.4756ZM217.549 65.0801H245.925L243.676 78H198.935L210.993 8.32812H227.406L217.549 65.0801Z" fill="#000747"/>
<path d="M20.4976 7.90793C21.1454 8.2564 20.4354 8.25536 20.0561 8.34062C19.8723 8.38192 20.4326 8.34408 20.6208 8.34408" stroke="#000747" stroke-linecap="round" stroke-linejoin="round"/>
<path d="M1.97963 71.3333C2.13649 71.3388 2.2602 71.3618 2.39846 71.4317C2.44845 71.457 2.50694 71.5247 2.51269 71.4317C2.52454 71.2399 2.64507 71.5258 2.76018 71.5258C2.92108 71.5258 3.0631 71.4103 3.22767 71.4103C3.81374 71.4103 4.36217 71.5806 4.93262 71.6927C5.38474 71.7815 5.81839 71.7255 6.27373 71.7569C7.09234 71.8133 7.90098 72.1219 8.71692 72.219C9.35917 72.2954 9.99313 72.6149 10.6186 72.7731C10.9136 72.8477 11.2307 72.9369 11.5366 72.9506C11.7825 72.9617 12.0171 73.0542 12.2601 73.0662C12.8114 73.0934 13.3522 73.1333 13.9016 73.1838C14.1994 73.2112 14.494 73.3321 14.7921 73.3785C15.1478 73.4338 15.4763 73.5256 15.8392 73.5283C16.3345 73.5318 16.8237 73.5831 17.3157 73.6438C18.0688 73.7367 18.8215 73.9968 19.541 74.2214C19.7733 74.2939 20.0478 74.4053 20.2983 74.3776C20.4095 74.3653 20.4863 74.2784 20.5987 74.2642C20.7219 74.2486 20.7911 74.2774 20.8737 74.2043C21.0045 74.0885 21.2383 74.0728 21.394 74.1102C21.7243 74.1894 22.0305 74.3416 22.3671 74.4011C22.6137 74.4447 22.8649 74.4368 23.1117 74.4824C23.1631 74.4919 23.2509 74.5298 23.2978 74.4824C23.3228 74.4571 23.3401 74.3482 23.3401 74.384C23.3401 74.4957 23.5474 74.5701 23.6278 74.6258C23.9485 74.8476 24.3115 74.9895 24.677 75.1071C24.9291 75.1882 25.2405 75.1177 25.4724 75.2226C25.7068 75.3287 25.9917 75.3368 26.2402 75.3938C26.4143 75.4337 26.5918 75.4877 26.7712 75.4922C27.0156 75.4983 27.2277 75.5703 27.465 75.6034C27.6507 75.6293 27.8346 75.5847 28.0171 75.6462C28.2064 75.71 28.4151 75.6847 28.6136 75.6847C28.7922 75.6847 28.9436 75.5753 29.1361 75.5692C29.2883 75.5644 29.4817 75.4889 29.6311 75.5393C29.772 75.5868 29.9209 75.6826 30.0415 75.7639C30.1884 75.863 30.0568 75.7932 29.9738 75.7618C29.773 75.6856 29.5531 75.6659 29.3434 75.627C28.9478 75.5535 28.5015 75.5243 28.0996 75.5778C27.8501 75.611 27.6148 75.7086 27.3614 75.7211C27.1794 75.7301 27.0032 75.6881 26.822 75.6847C26.3732 75.6765 25.9825 75.6046 25.5464 75.4943C25.2631 75.4227 24.9548 75.4195 24.6643 75.4152C24.3553 75.4105 24.073 75.3423 23.7695 75.3039C23.4376 75.262 23.0826 75.2997 22.7478 75.2997C22.4305 75.2997 22.1132 75.2997 21.7959 75.2997C21.4053 75.2997 21.0833 75.3567 20.7044 75.4622C20.0837 75.6352 19.4228 75.5692 18.7837 75.5692C18.5619 75.5692 18.6865 75.5692 18.8303 75.5692C19.3581 75.5692 19.8642 75.5838 20.3871 75.6655C21.4063 75.8247 22.3988 76.1262 23.4184 76.2795C23.6405 76.3129 23.8643 76.3394 24.089 76.3394C24.1864 76.3394 24.5014 76.397 24.5797 76.3223C24.6311 76.2732 24.5966 76.0592 24.5966 75.9928C24.5966 75.8365 24.6356 75.7618 24.4613 75.7618C23.9791 75.7618 23.4697 75.7591 22.9932 75.6997C22.6187 75.653 22.2393 75.5549 21.8679 75.4836C21.4848 75.4101 21.1142 75.4184 20.7256 75.4152C19.8413 75.4078 18.9551 75.3767 18.0688 75.3767C17.6323 75.3767 17.1958 75.3767 16.7594 75.3767C16.6406 75.3767 16.5207 75.372 16.4019 75.3767C16.2908 75.381 16.2001 75.497 16.0973 75.5393C15.7528 75.6808 15.359 75.5886 15.0015 75.5692C14.5642 75.5455 14.1527 75.3008 13.726 75.2633C13.1203 75.21 12.5088 75.1367 11.8963 75.1863C11.4203 75.2248 10.9466 75.2226 10.4663 75.2226C10.1392 75.2226 9.81219 75.2134 9.49325 75.2975C9.42823 75.3147 9.26622 75.3311 9.38325 75.3938C9.70345 75.5652 10.0738 75.6111 10.4324 75.6441C10.7557 75.6738 11.0975 75.7961 11.4224 75.7596C11.7154 75.7267 11.9965 75.6847 12.2939 75.6847C12.6187 75.6847 12.9526 75.7181 13.267 75.6291C13.368 75.6005 13.472 75.6077 13.5758 75.6077C14.1194 75.6077 14.6615 75.6128 15.2046 75.6377C15.3319 75.6435 15.4606 75.6826 15.5558 75.5863C15.6874 75.4532 15.9185 75.487 16.0888 75.4537C16.3788 75.397 16.5903 75.1585 16.8884 75.0857C17.6349 74.9035 18.4073 75.0686 19.1603 75.0686C19.4003 75.0686 19.6418 75.0772 19.8816 75.0665C20.0496 75.0589 20.1974 74.995 20.3702 74.9916C20.5595 74.9879 20.7228 74.9515 20.9054 74.9146C21.0397 74.8874 21.4451 74.858 21.3094 74.8397C20.859 74.779 20.3722 74.845 19.9175 74.829C19.3307 74.8084 18.7811 74.6915 18.2041 74.6151C17.9394 74.58 17.6359 74.551 17.3834 74.4717C16.4139 74.1674 15.3774 74.0271 14.3839 73.8192C13.5445 73.6436 12.6305 73.4727 11.837 73.1517C11.1484 72.8732 10.4318 72.6258 9.67728 72.6062C9.17131 72.5931 8.59094 72.6947 8.10348 72.5463C7.76859 72.4443 7.43232 72.3465 7.0987 72.2404C6.98928 72.2055 6.81211 72.1106 6.6841 72.1035C6.60739 72.0991 6.533 72.0905 6.47257 72.142C6.43964 72.17 6.32411 72.161 6.32027 72.1698C6.27874 72.2643 6.31874 72.3907 6.18489 72.3944C5.84236 72.4038 5.50124 72.3464 5.16107 72.3324C4.48851 72.3046 3.95365 71.8121 3.29113 71.7954C3.07213 71.7898 2.81562 71.9015 2.65653 72.0521C2.63019 72.077 2.58777 72.1699 2.55288 72.1805C2.51304 72.1926 2.44235 71.8847 2.43865 71.8703C2.43453 71.8541 2.3741 71.5251 2.335 71.5515C2.23216 71.6208 2.15337 71.8403 2.09809 71.9451C2.07085 71.9968 1.94336 72.384 1.83579 72.2404C1.80809 72.2034 1.77812 71.9916 1.86329 72.0778C1.99629 72.2123 1.90777 72.8151 1.90348 73.0191C1.89025 73.6479 1.67502 74.2601 1.67502 74.8932C1.67502 75.0738 1.59887 75.234 1.59887 75.4152C1.59887 75.4594 1.58105 75.5473 1.6031 75.5863C1.63115 75.636 1.87682 75.6253 1.90348 75.627C2.15098 75.6424 2.39806 75.6462 2.64595 75.6462C3.04699 75.6462 3.44859 75.6529 3.84957 75.6462C3.94448 75.6447 4.04372 75.5657 4.13302 75.5328C4.48176 75.4046 4.90357 75.4551 5.26684 75.4237C5.70247 75.3861 6.14109 75.4922 6.57833 75.4922C6.78823 75.4922 6.97442 75.4537 7.18543 75.4537C7.61328 75.4537 7.98105 75.535 8.3954 75.627C8.56019 75.6636 9.17367 75.7964 9.24364 75.5221C9.32167 75.2163 8.85564 74.9665 8.64923 74.8675C8.31472 74.707 7.96005 74.6672 7.61061 74.5594C7.37049 74.4854 7.1349 74.3932 6.89563 74.3155C6.53505 74.1986 6.15058 74.1911 5.78509 74.0866C5.05058 73.8767 4.10533 73.5493 3.73746 72.8052C3.65094 72.6302 3.65153 72.5762 3.46458 72.6896C3.29262 72.794 3.13443 72.8863 2.97806 73.0105C2.83194 73.1267 2.85332 72.9676 2.80883 72.8501C2.60594 72.3143 2.57828 73.0928 2.55077 73.2758C2.4934 73.6573 2.42016 74.0449 2.40058 74.4311C2.38608 74.7169 2.53296 74.7944 2.7898 74.8718C3.60523 75.1174 3.44743 73.4974 3.31228 73.1004C3.2501 72.9177 3.01943 73.7418 3.0119 73.7764C2.97192 73.9601 2.76468 74.6639 3.10286 74.6771C3.36022 74.6871 3.89699 74.6791 4.01034 74.384C4.1297 74.0732 4.01555 73.7064 3.99976 73.3871C3.98973 73.1842 3.95505 73.1898 3.87496 73.3913C3.73067 73.7545 3.64413 74.2009 3.7015 74.5937C3.72972 74.7869 3.9531 74.799 4.10764 74.799C4.31961 74.799 4.26503 74.2391 4.31071 74.0845C4.40638 73.7608 4.55241 73.4599 4.71685 73.1689C4.76017 73.0922 4.62379 73.3184 4.58147 73.3956C4.43477 73.6634 4.34806 73.9448 4.29167 74.2449C4.27928 74.3109 4.26324 74.3768 4.25994 74.4439C4.2562 74.5203 4.26338 74.5965 4.35725 74.5295C4.62039 74.3415 4.85391 73.9833 4.99184 73.6951C5.10756 73.4534 5.2441 73.0172 5.09973 72.7495C5.06495 72.6851 4.49547 73.2393 4.45455 73.2844C4.32271 73.4295 4.10561 73.9893 4.18802 73.8107C4.3155 73.5344 4.57647 73.2721 4.53494 72.9421C4.531 72.9108 4.35653 72.5351 4.31917 72.6083C4.28069 72.6838 4.30459 72.834 4.31283 72.9057C4.35452 73.2684 4.44063 73.6357 4.53282 73.9882C4.60176 74.2519 4.69307 74.5201 4.94954 74.6514C5.15542 74.7569 5.49991 74.8519 5.73009 74.7905C6.12181 74.6859 6.11533 74.0778 6.08335 73.7636C6.04697 73.4062 5.76876 73.0952 5.41068 73.0619C4.84364 73.0091 4.80393 74.2354 4.96223 74.2514C5.41967 74.2976 6.13147 74.1123 6.41546 73.7294C6.54275 73.5577 6.54872 73.3947 6.54872 73.1902C6.54872 72.9174 6.32598 73.3796 6.3118 73.417C6.22684 73.6416 6.15809 73.9056 6.10239 74.1358C6.07672 74.2419 5.97113 74.6243 6.0072 74.7798C6.08271 75.1054 6.74866 74.5804 6.81948 74.5124C7.10795 74.2351 7.67218 73.351 7.21716 72.9635C7.09841 72.8623 6.94112 72.9761 6.85544 73.0576C6.59418 73.3063 6.53074 73.6684 6.52545 74.016C6.52247 74.212 6.53141 74.4359 6.63333 74.6108C6.69034 74.7086 6.7707 74.7483 6.77717 74.6108C6.79858 74.1562 6.81831 73.663 6.76871 73.2116C6.7653 73.1806 6.75526 73.0663 6.70314 73.0619C6.59959 73.0532 6.70834 73.2761 6.74545 73.3742C6.91328 73.8182 7.32587 73.8654 7.75022 73.8727C8.71005 73.8892 9.72099 73.9511 10.6694 73.7593C10.8166 73.7295 10.9588 73.7054 11.103 73.663C11.1778 73.6411 11.2538 73.6244 11.3293 73.6053C11.3835 73.5916 11.5335 73.5937 11.4901 73.5582C11.3715 73.4611 10.9415 73.3943 10.8449 73.3721C10.3702 73.2628 9.88934 73.1721 9.40229 73.1475C9.19878 73.1372 9.01406 73.1182 8.81634 73.0597C8.6931 73.0233 8.51907 72.8977 8.39328 72.8843C8.217 72.8656 8.15921 73.1163 8.15636 73.2416C8.14723 73.6434 8.84489 73.7554 9.11037 73.8171C10.1188 74.0515 11.1494 74.1685 12.1586 74.4054C12.8062 74.5574 13.4779 74.6162 14.1089 74.8333C14.5152 74.973 14.9039 75.1686 15.321 75.2761C15.3427 75.2817 15.8235 75.3561 15.8223 75.3382C15.8211 75.3204 15.7956 75.3144 15.78 75.3061C15.6526 75.2383 15.2793 75.073 15.2025 75.0387C14.7121 74.8191 14.2432 74.6126 13.7091 74.5359C13.2027 74.4632 12.6928 74.4318 12.1882 74.3434C11.338 74.1944 10.4983 74.0255 9.6392 73.9305C9.56119 73.9218 8.68301 73.7604 8.51597 73.8449C8.4133 73.8968 8.7413 73.8894 8.85442 73.9091C9.35022 73.9954 9.41675 74.0057 9.95862 74.1102C10.624 74.2384 11.3002 74.4298 11.9809 74.4525C12.3867 74.466 12.7977 74.4573 13.2035 74.4439C13.9791 74.4184 14.7834 74.3579 15.56 74.4161C15.9557 74.4457 16.3463 74.5498 16.7403 74.5979C17.6357 74.7074 14.9527 74.354 14.0581 74.2385C12.8771 74.0861 11.7217 73.8309 10.5636 73.5497C10.2709 73.4786 10.0468 73.3891 9.78516 73.2587C9.35793 73.0459 9.67331 73.5297 9.70055 73.755C9.72236 73.9355 9.6963 74.1007 9.67305 74.277C9.64185 74.5137 10.4686 74.414 10.5996 74.414C10.9015 74.414 11.1765 74.4224 11.4732 74.4824C11.5587 74.4997 11.751 74.4618 11.727 74.5466C11.7068 74.6181 11.5805 74.5629 11.507 74.5616C11.2392 74.5569 10.9898 74.5406 10.7201 74.5188C10.1658 74.4739 9.61376 74.4083 9.06172 74.3412C8.59205 74.2841 8.84573 74.3138 9.05749 74.3541C9.71274 74.4785 10.3455 74.6754 11.0078 74.7776C11.644 74.8758 12.3703 74.8577 12.9878 74.6621C13.3946 74.5333 13.7692 74.3158 14.1406 74.108C14.488 73.9137 14.8107 73.7686 15.1538 74.0289" stroke="#000747" stroke-linecap="round" stroke-linejoin="round"/>
<path d="M13.4024 8.14094C13.7696 8.20284 13.2546 8.69518 13.1739 8.42975C13.1552 8.36824 13.1648 8.10652 13.1274 8.07248C13.0883 8.03691 13.0183 8.05293 13.1781 8.08103C13.4252 8.12449 13.6599 8.14094 13.91 8.14094C14.1878 8.14094 14.4657 8.14094 14.7435 8.14094C15.1849 8.14094 15.6263 8.14094 16.0677 8.14094C16.308 8.14094 15.6003 8.25636 15.3717 8.33134C15.3324 8.34424 14.9105 8.40959 15.0523 8.46826C15.3552 8.5936 15.7616 8.52602 16.0846 8.52602C16.3261 8.52602 16.5166 8.50662 16.7488 8.43189C17.0186 8.34506 17.3209 8.37667 17.5991 8.34203C17.9437 8.29914 18.3099 8.33348 18.6568 8.33348C19.1264 8.33348 19.596 8.33348 20.0656 8.33348C20.1559 8.33348 20.2461 8.33348 20.3364 8.33348C20.6558 8.33348 19.6975 8.33348 19.3781 8.33348C18.7946 8.33348 18.1566 8.26762 17.5801 8.39338C17.4859 8.41394 16.8779 8.55587 17.0745 8.71856C17.3448 8.94218 17.8742 8.93838 18.1999 8.97956C18.482 9.01523 18.7561 9.02663 19.0397 9.02663C19.4289 9.02663 19.7839 9.13965 20.1671 9.18922C20.6828 9.25592 21.1696 9.29619 21.6902 9.29619C21.7594 9.29619 22.6411 9.32829 22.6125 9.23415C22.5505 9.03065 22.1029 9.00589 21.9461 8.97315C21.7818 8.93882 21.608 8.90079 21.4406 8.88115C21.2377 8.85736 21.0267 8.8726 20.8229 8.8726C20.6156 8.8726 20.5834 8.86985 20.6769 8.66294C20.8242 8.33711 21.112 8.37199 21.4321 8.37199C22.3683 8.37199 23.302 8.439 24.2413 8.40835C24.2999 8.40644 25.1969 8.36828 25.1974 8.36343C25.2098 8.2373 23.8526 8.23622 23.6447 8.26502C23.4467 8.29245 22.8312 8.52013 22.7732 8.73996C22.6633 9.15689 23.2283 9.14424 23.4882 9.21061C23.8293 9.29772 24.1751 9.221 24.5205 9.25982C24.572 9.26561 24.7756 9.34307 24.622 9.36465C24.1603 9.4295 23.6839 9.40238 23.2196 9.43311C23.0788 9.44242 21.9934 9.38862 22.0456 9.65988C22.1257 10.0767 23.2651 9.96252 23.5453 9.94869C23.8155 9.93536 24.0787 9.90892 24.3512 9.91232C25.125 9.92198 25.8912 10.1968 26.6485 10.3274C27.4416 10.4641 28.2187 10.6941 29.0155 10.813C29.2929 10.8544 29.5761 10.8351 29.8553 10.8601C30.279 10.8979 30.689 10.9896 31.1034 11.0804C31.4873 11.1646 31.8681 11.122 32.2456 11.2387C32.4404 11.2989 32.6323 11.3656 32.8252 11.4313C33.087 11.5204 33.36 11.5317 33.6248 11.6067C34.1935 11.7677 34.7893 11.8419 35.3678 11.9618C35.9648 12.0855 36.5646 11.9883 37.1595 12.148C38.0095 12.376 38.8891 12.352 39.7296 12.6165C39.8224 12.6457 40.5648 12.9945 40.6265 12.8539C40.665 12.7664 40.726 12.6399 40.7873 12.578C40.8678 12.4965 40.8879 12.2517 40.9756 12.5266C41.0974 12.9086 41.2026 13.2759 41.3627 13.6434C41.4118 13.7561 41.3171 13.5005 41.314 13.453C41.2534 12.534 41.3119 11.5957 41.3119 10.6739C41.3119 10.0607 41.3119 9.44737 41.3119 8.83409C41.3119 8.66688 41.2941 8.52343 41.369 8.37199C41.3795 8.35072 41.4476 8.18559 41.4938 8.22651C41.5944 8.31551 41.2276 8.25646 41.094 8.25646C40.6843 8.25646 40.2747 8.25646 39.865 8.25646C39.5165 8.25646 39.1818 8.1962 38.8348 8.18158C38.1197 8.15144 37.4134 8.10243 36.6963 8.10243C35.2745 8.10243 33.8323 8.03436 32.4149 8.13238C31.8889 8.16875 31.3534 8.14094 30.8262 8.14094C30.4327 8.14094 30.029 8.10394 29.6438 8.1987C29.3316 8.27549 29.0083 8.33348 28.6877 8.33348C28.0856 8.33348 27.4874 8.37199 26.8854 8.37199C26.4281 8.37199 25.9443 8.41326 25.4893 8.35487C25.2656 8.32617 25.0691 8.25646 24.8441 8.25646C24.6858 8.25646 24.5781 8.22774 24.5289 8.40194C24.46 8.64583 24.5612 8.79321 24.787 8.88543C24.9824 8.96524 25.1814 8.94961 25.3878 8.94961C25.8179 8.94961 26.248 8.94961 26.6781 8.94961C27.5496 8.94961 28.4211 8.94961 29.2926 8.94961C31.7196 8.94961 34.1466 8.94961 36.5736 8.94961C37.4105 8.94961 38.2475 8.94961 39.0845 8.94961C39.3487 8.94961 39.6057 8.9706 39.8565 8.8726C40.0006 8.81632 40.1303 8.79558 40.2838 8.79558C40.5378 8.79558 40.4898 8.95353 40.5123 9.19778C40.5322 9.41379 40.5504 9.61828 40.5504 9.83531C40.5504 10.0542 40.5504 10.2732 40.5504 10.4921C40.5504 10.8706 40.6646 11.2371 40.6646 11.6217C40.6646 11.703 40.6976 11.9005 40.6392 11.9618C40.4606 12.1494 40.2096 12.1136 39.975 12.1052C39.3993 12.0844 38.8426 11.9133 38.2785 11.8078C37.781 11.7147 37.2865 11.6804 36.7893 11.5767C36.061 11.4249 35.3358 11.2616 34.6063 11.1125C34.0353 10.9958 33.4522 10.8535 32.876 10.7681C31.7825 10.6059 30.6964 10.4705 29.6121 10.2225C29.1623 10.1197 28.7062 10.0613 28.254 9.97223C27.9103 9.9045 27.5858 9.80198 27.2323 9.7968C26.622 9.78785 26.0159 9.80757 25.4068 9.75829C25.2157 9.74283 25.0504 9.68367 24.9097 9.54649C24.6642 9.30711 25.0434 9.10006 25.2397 9.05658C25.8064 8.93104 26.376 8.95824 26.951 8.94747C27.4274 8.93855 27.8894 8.86022 28.3619 8.81269C29.015 8.74701 29.6674 8.75707 30.3228 8.75707C30.8778 8.75707 31.4472 8.7178 31.996 8.81269C32.6321 8.92269 33.3227 9.10365 33.9696 9.10365C34.5943 9.10365 35.2215 9.11813 35.8459 9.10151C36.9062 9.07329 37.9941 8.97635 39.0464 9.15927C39.2792 9.19973 39.6766 9.21903 39.8481 9.41171C40.0294 9.61542 39.8642 10.1029 39.9708 10.3659C40.046 10.5514 40.1033 10.7753 40.1294 10.9734C40.1553 11.1694 40.1811 11.3425 39.9623 11.3671C39.2254 11.4499 38.5018 11.1533 37.773 11.0932C37.5219 11.0726 37.2729 11.0753 37.022 11.0676C36.7292 11.0586 36.4459 10.9906 36.1505 10.9906C35.4354 10.9906 34.7328 10.8657 34.0394 10.6996C33.7173 10.6224 33.3452 10.5285 33.0135 10.5285C32.6199 10.5285 32.2387 10.5046 31.8479 10.4429C31.2284 10.3451 30.6464 10.1103 30.0245 10.0193C29.64 9.963 29.2592 9.85251 28.878 9.7754C28.5106 9.70108 28.5591 9.56931 28.9203 9.5358C30.2031 9.41677 31.4807 9.56575 32.7639 9.56575C33.9727 9.56575 35.1819 9.60426 36.3895 9.60426C37.1563 9.60426 37.9184 9.80008 38.6847 9.83531C38.9255 9.84638 39.1436 10.3194 39.2896 10.4835C39.5311 10.7548 39.2616 10.8131 38.9597 10.828C37.8593 10.8821 36.807 10.3744 35.7084 10.3744C35.176 10.3744 34.6437 10.3744 34.1113 10.3744C33.8704 10.3744 33.6731 10.3961 33.4535 10.2974C33.3815 10.265 33.5727 10.1794 33.6502 10.1648C33.9756 10.1033 34.311 10.1061 34.6402 10.0878C35.1129 10.0615 35.5788 10.0025 36.049 9.95083C36.8074 9.86751 37.5735 9.85781 38.3356 9.83531C38.4814 9.831 39.3436 9.70476 39.4081 9.83531" stroke="#000747" stroke-linecap="round" stroke-linejoin="round"/>
<rect width="29.0168" height="63.7478" transform="matrix(0.98488 0.173238 -0.16948 0.985534 12.655 8.06085)" fill="#000747"/>
<line x1="1" y1="76.3636" x2="31" y2="76.3636" stroke="#000747"/>
<line x1="12" y1="7.59091" x2="42" y2="7.59091" stroke="#000747"/>
<line y1="-0.5" x2="70.8083" y2="-0.5" transform="matrix(-0.169472 0.985535 -0.984881 -0.17323 12 7.07954)" stroke="#000747"/>
<line y1="-0.5" x2="70.8083" y2="-0.5" transform="matrix(-0.169472 0.985535 -0.984881 -0.17323 42 7.07954)" stroke="#000747"/>
<path d="M58.4976 7.90793C59.1454 8.2564 58.4354 8.25536 58.0561 8.34062C57.8723 8.38192 58.4326 8.34408 58.6208 8.34408" stroke="#E31F1F" stroke-linecap="round" stroke-linejoin="round"/>
<path d="M39.9796 71.3333C40.1365 71.3388 40.2602 71.3618 40.3985 71.4317C40.4484 71.457 40.5069 71.5247 40.5127 71.4317C40.5245 71.2399 40.6451 71.5258 40.7602 71.5258C40.9211 71.5258 41.0631 71.4103 41.2277 71.4103C41.8137 71.4103 42.3622 71.5806 42.9326 71.6927C43.3847 71.7815 43.8184 71.7255 44.2737 71.7569C45.0923 71.8133 45.901 72.1219 46.7169 72.219C47.3592 72.2954 47.9931 72.6149 48.6186 72.7731C48.9136 72.8477 49.2307 72.9369 49.5366 72.9506C49.7825 72.9617 50.0171 73.0542 50.2601 73.0662C50.8114 73.0934 51.3522 73.1333 51.9016 73.1838C52.1994 73.2112 52.494 73.3321 52.7921 73.3785C53.1478 73.4338 53.4763 73.5256 53.8392 73.5283C54.3345 73.5318 54.8237 73.5831 55.3157 73.6438C56.0688 73.7367 56.8215 73.9968 57.541 74.2214C57.7733 74.2939 58.0478 74.4053 58.2983 74.3776C58.4095 74.3653 58.4863 74.2784 58.5987 74.2642C58.7219 74.2486 58.7911 74.2774 58.8737 74.2043C59.0045 74.0885 59.2383 74.0728 59.394 74.1102C59.7243 74.1894 60.0305 74.3416 60.3671 74.4011C60.6137 74.4447 60.8649 74.4368 61.1117 74.4824C61.1631 74.4919 61.2509 74.5298 61.2978 74.4824C61.3228 74.4571 61.3401 74.3482 61.3401 74.384C61.3401 74.4957 61.5474 74.5701 61.6278 74.6258C61.9485 74.8476 62.3115 74.9895 62.677 75.1071C62.9291 75.1882 63.2405 75.1177 63.4724 75.2226C63.7068 75.3287 63.9917 75.3368 64.2402 75.3938C64.4143 75.4337 64.5918 75.4877 64.7712 75.4922C65.0156 75.4983 65.2277 75.5703 65.465 75.6034C65.6507 75.6293 65.8346 75.5847 66.0171 75.6462C66.2064 75.71 66.4151 75.6847 66.6136 75.6847C66.7922 75.6847 66.9436 75.5753 67.1361 75.5692C67.2883 75.5644 67.4817 75.4889 67.6311 75.5393C67.772 75.5868 67.9209 75.6826 68.0415 75.7639C68.1884 75.863 68.0568 75.7932 67.9738 75.7618C67.773 75.6856 67.5531 75.6659 67.3434 75.627C66.9478 75.5535 66.5015 75.5243 66.0996 75.5778C65.8501 75.611 65.6148 75.7086 65.3614 75.7211C65.1794 75.7301 65.0032 75.6881 64.822 75.6847C64.3732 75.6765 63.9825 75.6046 63.5464 75.4943C63.2631 75.4227 62.9548 75.4195 62.6643 75.4152C62.3553 75.4105 62.073 75.3423 61.7695 75.3039C61.4376 75.262 61.0826 75.2997 60.7478 75.2997C60.4305 75.2997 60.1132 75.2997 59.7959 75.2997C59.4053 75.2997 59.0833 75.3567 58.7044 75.4622C58.0837 75.6352 57.4228 75.5692 56.7837 75.5692C56.5619 75.5692 56.6865 75.5692 56.8303 75.5692C57.3581 75.5692 57.8642 75.5838 58.3871 75.6655C59.4063 75.8247 60.3988 76.1262 61.4184 76.2795C61.6405 76.3129 61.8643 76.3394 62.089 76.3394C62.1864 76.3394 62.5014 76.397 62.5797 76.3223C62.6311 76.2732 62.5966 76.0592 62.5966 75.9928C62.5966 75.8365 62.6356 75.7618 62.4613 75.7618C61.9791 75.7618 61.4697 75.7591 60.9932 75.6997C60.6187 75.653 60.2393 75.5549 59.8679 75.4836C59.4848 75.4101 59.1142 75.4184 58.7256 75.4152C57.8413 75.4078 56.9551 75.3767 56.0688 75.3767C55.6323 75.3767 55.1958 75.3767 54.7594 75.3767C54.6406 75.3767 54.5207 75.372 54.4019 75.3767C54.2908 75.381 54.2001 75.497 54.0973 75.5393C53.7528 75.6808 53.359 75.5886 53.0015 75.5692C52.5642 75.5455 52.1527 75.3008 51.726 75.2633C51.1203 75.21 50.5088 75.1367 49.8963 75.1863C49.4203 75.2248 48.9466 75.2226 48.4663 75.2226C48.1392 75.2226 47.8122 75.2134 47.4932 75.2975C47.4282 75.3147 47.2662 75.3311 47.3832 75.3938C47.7035 75.5652 48.0738 75.6111 48.4324 75.6441C48.7557 75.6738 49.0975 75.7961 49.4224 75.7596C49.7154 75.7267 49.9965 75.6847 50.2939 75.6847C50.6187 75.6847 50.9526 75.7181 51.267 75.6291C51.368 75.6005 51.472 75.6077 51.5758 75.6077C52.1194 75.6077 52.6615 75.6128 53.2046 75.6377C53.3319 75.6435 53.4606 75.6826 53.5558 75.5863C53.6874 75.4532 53.9185 75.487 54.0888 75.4537C54.3788 75.397 54.5903 75.1585 54.8884 75.0857C55.6349 74.9035 56.4073 75.0686 57.1603 75.0686C57.4003 75.0686 57.6418 75.0772 57.8816 75.0665C58.0496 75.0589 58.1974 74.995 58.3702 74.9916C58.5595 74.9879 58.7228 74.9515 58.9054 74.9146C59.0397 74.8874 59.4451 74.858 59.3094 74.8397C58.859 74.779 58.3722 74.845 57.9175 74.829C57.3307 74.8084 56.7811 74.6915 56.2041 74.6151C55.9394 74.58 55.6359 74.551 55.3834 74.4717C54.4139 74.1674 53.3774 74.0271 52.3839 73.8192C51.5445 73.6436 50.6305 73.4727 49.837 73.1517C49.1484 72.8732 48.4318 72.6258 47.6773 72.6062C47.1713 72.5931 46.5909 72.6947 46.1035 72.5463C45.7686 72.4443 45.4323 72.3465 45.0987 72.2404C44.9893 72.2055 44.8121 72.1106 44.6841 72.1035C44.6074 72.0991 44.533 72.0905 44.4726 72.142C44.4396 72.17 44.3241 72.161 44.3203 72.1698C44.2787 72.2643 44.3187 72.3907 44.1849 72.3944C43.8424 72.4038 43.5012 72.3464 43.1611 72.3324C42.4885 72.3046 41.9537 71.8121 41.2911 71.7954C41.0721 71.7898 40.8156 71.9015 40.6565 72.0521C40.6302 72.077 40.5878 72.1699 40.5529 72.1805C40.513 72.1926 40.4423 71.8847 40.4387 71.8703C40.4345 71.8541 40.3741 71.5251 40.335 71.5515C40.2322 71.6208 40.1534 71.8403 40.0981 71.9451C40.0708 71.9968 39.9434 72.384 39.8358 72.2404C39.8081 72.2034 39.7781 71.9916 39.8633 72.0778C39.9963 72.2123 39.9078 72.8151 39.9035 73.0191C39.8902 73.6479 39.675 74.2601 39.675 74.8932C39.675 75.0738 39.5989 75.234 39.5989 75.4152C39.5989 75.4594 39.5811 75.5473 39.6031 75.5863C39.6312 75.636 39.8768 75.6253 39.9035 75.627C40.151 75.6424 40.3981 75.6462 40.646 75.6462C41.047 75.6462 41.4486 75.6529 41.8496 75.6462C41.9445 75.6447 42.0437 75.5657 42.133 75.5328C42.4818 75.4046 42.9036 75.4551 43.2668 75.4237C43.7025 75.3861 44.1411 75.4922 44.5783 75.4922C44.7882 75.4922 44.9744 75.4537 45.1854 75.4537C45.6133 75.4537 45.981 75.535 46.3954 75.627C46.5602 75.6636 47.1737 75.7964 47.2436 75.5221C47.3217 75.2163 46.8556 74.9665 46.6492 74.8675C46.3147 74.707 45.9601 74.6672 45.6106 74.5594C45.3705 74.4854 45.1349 74.3932 44.8956 74.3155C44.535 74.1986 44.1506 74.1911 43.7851 74.0866C43.0506 73.8767 42.1053 73.5493 41.7375 72.8052C41.6509 72.6302 41.6515 72.5762 41.4646 72.6896C41.2926 72.794 41.1344 72.8863 40.9781 73.0105C40.8319 73.1267 40.8533 72.9676 40.8088 72.8501C40.6059 72.3143 40.5783 73.0928 40.5508 73.2758C40.4934 73.6573 40.4202 74.0449 40.4006 74.4311C40.3861 74.7169 40.533 74.7944 40.7898 74.8718C41.6052 75.1174 41.4474 73.4974 41.3123 73.1004C41.2501 72.9177 41.0194 73.7418 41.0119 73.7764C40.9719 73.9601 40.7647 74.6639 41.1029 74.6771C41.3602 74.6871 41.897 74.6791 42.0103 74.384C42.1297 74.0732 42.0155 73.7064 41.9998 73.3871C41.9897 73.1842 41.955 73.1898 41.875 73.3913C41.7307 73.7545 41.6441 74.2009 41.7015 74.5937C41.7297 74.7869 41.9531 74.799 42.1076 74.799C42.3196 74.799 42.265 74.2391 42.3107 74.0845C42.4064 73.7608 42.5524 73.4599 42.7169 73.1689C42.7602 73.0922 42.6238 73.3184 42.5815 73.3956C42.4348 73.6634 42.3481 73.9448 42.2917 74.2449C42.2793 74.3109 42.2632 74.3768 42.2599 74.4439C42.2562 74.5203 42.2634 74.5965 42.3572 74.5295C42.6204 74.3415 42.8539 73.9833 42.9918 73.6951C43.1076 73.4534 43.2441 73.0172 43.0997 72.7495C43.065 72.6851 42.4955 73.2393 42.4546 73.2844C42.3227 73.4295 42.1056 73.9893 42.188 73.8107C42.3155 73.5344 42.5765 73.2721 42.5349 72.9421C42.531 72.9108 42.3565 72.5351 42.3192 72.6083C42.2807 72.6838 42.3046 72.834 42.3128 72.9057C42.3545 73.2684 42.4406 73.6357 42.5328 73.9882C42.6018 74.2519 42.6931 74.5201 42.9495 74.6514C43.1554 74.7569 43.4999 74.8519 43.7301 74.7905C44.1218 74.6859 44.1153 74.0778 44.0834 73.7636C44.047 73.4062 43.7688 73.0952 43.4107 73.0619C42.8436 73.0091 42.8039 74.2354 42.9622 74.2514C43.4197 74.2976 44.1315 74.1123 44.4155 73.7294C44.5428 73.5577 44.5487 73.3947 44.5487 73.1902C44.5487 72.9174 44.326 73.3796 44.3118 73.417C44.2268 73.6416 44.1581 73.9056 44.1024 74.1358C44.0767 74.2419 43.9711 74.6243 44.0072 74.7798C44.0827 75.1054 44.7487 74.5804 44.8195 74.5124C45.108 74.2351 45.6722 73.351 45.2172 72.9635C45.0984 72.8623 44.9411 72.9761 44.8554 73.0576C44.5942 73.3063 44.5307 73.6684 44.5255 74.016C44.5225 74.212 44.5314 74.4359 44.6333 74.6108C44.6903 74.7086 44.7707 74.7483 44.7772 74.6108C44.7986 74.1562 44.8183 73.663 44.7687 73.2116C44.7653 73.1806 44.7553 73.0663 44.7031 73.0619C44.5996 73.0532 44.7083 73.2761 44.7454 73.3742C44.9133 73.8182 45.3259 73.8654 45.7502 73.8727C46.71 73.8892 47.721 73.9511 48.6694 73.7593C48.8166 73.7295 48.9588 73.7054 49.103 73.663C49.1778 73.6411 49.2538 73.6244 49.3293 73.6053C49.3835 73.5916 49.5335 73.5937 49.4901 73.5582C49.3715 73.4611 48.9415 73.3943 48.8449 73.3721C48.3702 73.2628 47.8893 73.1721 47.4023 73.1475C47.1988 73.1372 47.0141 73.1182 46.8163 73.0597C46.6931 73.0233 46.5191 72.8977 46.3933 72.8843C46.217 72.8656 46.1592 73.1163 46.1564 73.2416C46.1472 73.6434 46.8449 73.7554 47.1104 73.8171C48.1188 74.0515 49.1494 74.1685 50.1586 74.4054C50.8062 74.5574 51.4779 74.6162 52.1089 74.8333C52.5152 74.973 52.9039 75.1686 53.321 75.2761C53.3427 75.2817 53.8235 75.3561 53.8223 75.3382C53.8211 75.3204 53.7956 75.3144 53.78 75.3061C53.6526 75.2383 53.2793 75.073 53.2025 75.0387C52.7121 74.8191 52.2432 74.6126 51.7091 74.5359C51.2027 74.4632 50.6928 74.4318 50.1882 74.3434C49.338 74.1944 48.4983 74.0255 47.6392 73.9305C47.5612 73.9218 46.683 73.7604 46.516 73.8449C46.4133 73.8968 46.7413 73.8894 46.8544 73.9091C47.3502 73.9954 47.4168 74.0057 47.9586 74.1102C48.624 74.2384 49.3002 74.4298 49.9809 74.4525C50.3867 74.466 50.7977 74.4573 51.2035 74.4439C51.9791 74.4184 52.7834 74.3579 53.56 74.4161C53.9557 74.4457 54.3463 74.5498 54.7403 74.5979C55.6357 74.7074 52.9527 74.354 52.0581 74.2385C50.8771 74.0861 49.7217 73.8309 48.5636 73.5497C48.2709 73.4786 48.0468 73.3891 47.7852 73.2587C47.3579 73.0459 47.6733 73.5297 47.7005 73.755C47.7224 73.9355 47.6963 74.1007 47.673 74.277C47.6418 74.5137 48.4686 74.414 48.5996 74.414C48.9015 74.414 49.1765 74.4224 49.4732 74.4824C49.5587 74.4997 49.751 74.4618 49.727 74.5466C49.7068 74.6181 49.5805 74.5629 49.507 74.5616C49.2392 74.5569 48.9898 74.5406 48.7201 74.5188C48.1658 74.4739 47.6138 74.4083 47.0617 74.3412C46.592 74.2841 46.8457 74.3138 47.0575 74.3541C47.7127 74.4785 48.3455 74.6754 49.0078 74.7776C49.644 74.8758 50.3703 74.8577 50.9878 74.6621C51.3946 74.5333 51.7692 74.3158 52.1406 74.108C52.488 73.9137 52.8107 73.7686 53.1538 74.0289" stroke="#E31F1F" stroke-linecap="round" stroke-linejoin="round"/>
<path d="M51.4024 8.14094C51.7696 8.20284 51.2546 8.69518 51.1739 8.42975C51.1552 8.36824 51.1648 8.10652 51.1274 8.07248C51.0883 8.03691 51.0183 8.05293 51.1781 8.08103C51.4252 8.12449 51.6599 8.14094 51.91 8.14094C52.1878 8.14094 52.4657 8.14094 52.7435 8.14094C53.1849 8.14094 53.6263 8.14094 54.0677 8.14094C54.308 8.14094 53.6003 8.25636 53.3717 8.33134C53.3324 8.34424 52.9105 8.40959 53.0523 8.46826C53.3552 8.5936 53.7616 8.52602 54.0846 8.52602C54.3261 8.52602 54.5166 8.50662 54.7488 8.43189C55.0186 8.34506 55.3209 8.37667 55.5991 8.34203C55.9437 8.29914 56.3099 8.33348 56.6568 8.33348C57.1264 8.33348 57.596 8.33348 58.0656 8.33348C58.1559 8.33348 58.2461 8.33348 58.3364 8.33348C58.6558 8.33348 57.6975 8.33348 57.3781 8.33348C56.7946 8.33348 56.1566 8.26762 55.5801 8.39338C55.4859 8.41394 54.8779 8.55587 55.0745 8.71856C55.3448 8.94218 55.8742 8.93838 56.1999 8.97956C56.482 9.01523 56.7561 9.02663 57.0397 9.02663C57.4289 9.02663 57.7839 9.13965 58.1671 9.18922C58.6828 9.25592 59.1696 9.29619 59.6902 9.29619C59.7594 9.29619 60.6411 9.32829 60.6125 9.23415C60.5505 9.03065 60.1029 9.00589 59.9461 8.97315C59.7818 8.93882 59.608 8.90079 59.4406 8.88115C59.2377 8.85736 59.0267 8.8726 58.8229 8.8726C58.6156 8.8726 58.5834 8.86985 58.6769 8.66294C58.8242 8.33711 59.112 8.37199 59.4321 8.37199C60.3683 8.37199 61.302 8.439 62.2413 8.40835C62.2999 8.40644 63.1969 8.36828 63.1974 8.36343C63.2098 8.2373 61.8526 8.23622 61.6447 8.26502C61.4467 8.29245 60.8312 8.52013 60.7732 8.73996C60.6633 9.15689 61.2283 9.14424 61.4882 9.21061C61.8293 9.29772 62.1751 9.221 62.5205 9.25982C62.572 9.26561 62.7756 9.34307 62.622 9.36465C62.1603 9.4295 61.6839 9.40238 61.2196 9.43311C61.0788 9.44242 59.9934 9.38862 60.0456 9.65988C60.1257 10.0767 61.2651 9.96252 61.5453 9.94869C61.8155 9.93536 62.0787 9.90892 62.3512 9.91232C63.125 9.92198 63.8912 10.1968 64.6485 10.3274C65.4416 10.4641 66.2187 10.6941 67.0155 10.813C67.2929 10.8544 67.5761 10.8351 67.8553 10.8601C68.279 10.8979 68.689 10.9896 69.1034 11.0804C69.4873 11.1646 69.8681 11.122 70.2456 11.2387C70.4404 11.2989 70.6323 11.3656 70.8252 11.4313C71.087 11.5204 71.36 11.5317 71.6248 11.6067C72.1935 11.7677 72.7893 11.8419 73.3678 11.9618C73.9648 12.0855 74.5646 11.9883 75.1595 12.148C76.0095 12.376 76.8891 12.352 77.7296 12.6165C77.8224 12.6457 78.5648 12.9945 78.6265 12.8539C78.665 12.7664 78.726 12.6399 78.7873 12.578C78.8678 12.4965 78.8879 12.2517 78.9756 12.5266C79.0974 12.9086 79.2026 13.2759 79.3627 13.6434C79.4118 13.7561 79.3171 13.5005 79.314 13.453C79.2534 12.534 79.3119 11.5957 79.3119 10.6739C79.3119 10.0607 79.3119 9.44737 79.3119 8.83409C79.3119 8.66688 79.2941 8.52343 79.369 8.37199C79.3795 8.35072 79.4476 8.18559 79.4938 8.22651C79.5944 8.31551 79.2276 8.25646 79.094 8.25646C78.6843 8.25646 78.2747 8.25646 77.865 8.25646C77.5165 8.25646 77.1818 8.1962 76.8348 8.18158C76.1197 8.15144 75.4134 8.10243 74.6963 8.10243C73.2745 8.10243 71.8323 8.03436 70.4149 8.13238C69.8889 8.16875 69.3534 8.14094 68.8262 8.14094C68.4327 8.14094 68.029 8.10394 67.6438 8.1987C67.3316 8.27549 67.0083 8.33348 66.6877 8.33348C66.0856 8.33348 65.4874 8.37199 64.8854 8.37199C64.4281 8.37199 63.9443 8.41326 63.4893 8.35487C63.2656 8.32617 63.0691 8.25646 62.8441 8.25646C62.6858 8.25646 62.5781 8.22774 62.5289 8.40194C62.46 8.64583 62.5612 8.79321 62.787 8.88543C62.9824 8.96524 63.1814 8.94961 63.3878 8.94961C63.8179 8.94961 64.248 8.94961 64.6781 8.94961C65.5496 8.94961 66.4211 8.94961 67.2926 8.94961C69.7196 8.94961 72.1466 8.94961 74.5736 8.94961C75.4105 8.94961 76.2475 8.94961 77.0845 8.94961C77.3487 8.94961 77.6057 8.9706 77.8565 8.8726C78.0006 8.81632 78.1303 8.79558 78.2838 8.79558C78.5378 8.79558 78.4898 8.95353 78.5123 9.19778C78.5322 9.41379 78.5504 9.61828 78.5504 9.83531C78.5504 10.0542 78.5504 10.2732 78.5504 10.4921C78.5504 10.8706 78.6646 11.2371 78.6646 11.6217C78.6646 11.703 78.6976 11.9005 78.6392 11.9618C78.4606 12.1494 78.2096 12.1136 77.975 12.1052C77.3993 12.0844 76.8426 11.9133 76.2785 11.8078C75.781 11.7147 75.2865 11.6804 74.7893 11.5767C74.061 11.4249 73.3358 11.2616 72.6063 11.1125C72.0353 10.9958 71.4522 10.8535 70.876 10.7681C69.7825 10.6059 68.6964 10.4705 67.6121 10.2225C67.1623 10.1197 66.7062 10.0613 66.254 9.97223C65.9103 9.9045 65.5858 9.80198 65.2323 9.7968C64.622 9.78785 64.0159 9.80757 63.4068 9.75829C63.2157 9.74283 63.0504 9.68367 62.9097 9.54649C62.6642 9.30711 63.0434 9.10006 63.2397 9.05658C63.8064 8.93104 64.376 8.95824 64.951 8.94747C65.4274 8.93855 65.8894 8.86022 66.3619 8.81269C67.015 8.74701 67.6674 8.75707 68.3228 8.75707C68.8778 8.75707 69.4472 8.7178 69.996 8.81269C70.6321 8.92269 71.3227 9.10365 71.9696 9.10365C72.5943 9.10365 73.2215 9.11813 73.8459 9.10151C74.9062 9.07329 75.9941 8.97635 77.0464 9.15927C77.2792 9.19973 77.6766 9.21903 77.8481 9.41171C78.0294 9.61542 77.8642 10.1029 77.9708 10.3659C78.046 10.5514 78.1033 10.7753 78.1294 10.9734C78.1553 11.1694 78.1811 11.3425 77.9623 11.3671C77.2254 11.4499 76.5018 11.1533 75.773 11.0932C75.5219 11.0726 75.2729 11.0753 75.022 11.0676C74.7292 11.0586 74.4459 10.9906 74.1505 10.9906C73.4354 10.9906 72.7328 10.8657 72.0394 10.6996C71.7173 10.6224 71.3452 10.5285 71.0135 10.5285C70.6199 10.5285 70.2387 10.5046 69.8479 10.4429C69.2284 10.3451 68.6464 10.1103 68.0245 10.0193C67.64 9.963 67.2592 9.85251 66.878 9.7754C66.5106 9.70108 66.5591 9.56931 66.9203 9.5358C68.2031 9.41677 69.4807 9.56575 70.7639 9.56575C71.9727 9.56575 73.1819 9.60426 74.3895 9.60426C75.1563 9.60426 75.9184 9.80008 76.6847 9.83531C76.9255 9.84638 77.1436 10.3194 77.2896 10.4835C77.5311 10.7548 77.2616 10.8131 76.9597 10.828C75.8593 10.8821 74.807 10.3744 73.7084 10.3744C73.176 10.3744 72.6437 10.3744 72.1113 10.3744C71.8704 10.3744 71.6731 10.3961 71.4535 10.2974C71.3815 10.265 71.5727 10.1794 71.6502 10.1648C71.9756 10.1033 72.311 10.1061 72.6402 10.0878C73.1129 10.0615 73.5788 10.0025 74.049 9.95083C74.8074 9.86751 75.5735 9.85781 76.3356 9.83531C76.4814 9.831 77.3436 9.70476 77.4081 9.83531" stroke="#E31F1F" stroke-linecap="round" stroke-linejoin="round"/>
<rect width="29.0168" height="63.7478" transform="matrix(0.98488 0.173238 -0.16948 0.985534 50.655 8.06085)" fill="#E31F1F"/>
<line x1="39" y1="76.3636" x2="69" y2="76.3636" stroke="#E31F1F"/>
<line x1="50" y1="7.59091" x2="80" y2="7.59091" stroke="#E31F1F"/>
<line y1="-0.5" x2="70.8083" y2="-0.5" transform="matrix(-0.169472 0.985535 -0.984881 -0.17323 50 7.07954)" stroke="#E31F1F"/>
<line y1="-0.5" x2="70.8083" y2="-0.5" transform="matrix(-0.169472 0.985535 -0.984881 -0.17323 80 7.07954)" stroke="#E31F1F"/>
<path d="M96.4976 8.91929C97.1454 9.26776 96.4354 9.26673 96.0561 9.35198C95.8723 9.39328 96.4326 9.35544 96.6208 9.35544" stroke="#204BE2" stroke-linecap="round" stroke-linejoin="round"/>
<path d="M77.9796 72.3446C78.1365 72.3501 78.2602 72.3731 78.3985 72.4431C78.4484 72.4683 78.5069 72.5361 78.5127 72.4431C78.5245 72.2513 78.6451 72.5372 78.7602 72.5372C78.9211 72.5372 79.0631 72.4217 79.2277 72.4217C79.8137 72.4217 80.3622 72.592 80.9326 72.7041C81.3847 72.7929 81.8184 72.7368 82.2737 72.7682C83.0923 72.8247 83.901 73.1333 84.7169 73.2303C85.3592 73.3068 85.9931 73.6263 86.6186 73.7844C86.9136 73.859 87.2307 73.9482 87.5366 73.962C87.7825 73.9731 88.0171 74.0655 88.2601 74.0775C88.8114 74.1047 89.3522 74.1447 89.9016 74.1952C90.1994 74.2226 90.494 74.3435 90.7921 74.3899C91.1478 74.4452 91.4763 74.537 91.8392 74.5396C92.3345 74.5432 92.8237 74.5945 93.3157 74.6552C94.0688 74.748 94.8215 75.0081 95.541 75.2328C95.7733 75.3053 96.0478 75.4167 96.2983 75.389C96.4095 75.3767 96.4863 75.2898 96.5987 75.2756C96.7219 75.26 96.7911 75.2887 96.8737 75.2157C97.0045 75.0999 97.2383 75.0841 97.394 75.1215C97.7243 75.2008 98.0305 75.3529 98.3671 75.4125C98.6137 75.4561 98.8649 75.4482 99.1117 75.4938C99.1631 75.5033 99.2509 75.5412 99.2978 75.4938C99.3228 75.4685 99.3401 75.3596 99.3401 75.3954C99.3401 75.5071 99.5474 75.5815 99.6278 75.6371C99.9485 75.859 100.312 76.0009 100.677 76.1185C100.929 76.1996 101.24 76.1291 101.472 76.234C101.707 76.3401 101.992 76.3482 102.24 76.4051C102.414 76.4451 102.592 76.4991 102.771 76.5036C103.016 76.5097 103.228 76.5817 103.465 76.6148C103.651 76.6407 103.835 76.5961 104.017 76.6576C104.206 76.7214 104.415 76.6961 104.614 76.6961C104.792 76.6961 104.944 76.5867 105.136 76.5806C105.288 76.5758 105.482 76.5003 105.631 76.5506C105.772 76.5981 105.921 76.694 106.041 76.7753C106.188 76.8744 106.057 76.8046 105.974 76.7731C105.773 76.697 105.553 76.6773 105.343 76.6383C104.948 76.5648 104.501 76.5357 104.1 76.5891C103.85 76.6223 103.615 76.72 103.361 76.7325C103.179 76.7414 103.003 76.6994 102.822 76.6961C102.373 76.6878 101.983 76.616 101.546 76.5057C101.263 76.4341 100.955 76.4309 100.664 76.4265C100.355 76.4219 100.073 76.3537 99.7695 76.3153C99.4376 76.2733 99.0826 76.311 98.7478 76.311C98.4305 76.311 98.1132 76.311 97.7959 76.311C97.4053 76.311 97.0833 76.368 96.7044 76.4736C96.0837 76.6466 95.4228 76.5806 94.7837 76.5806C94.5619 76.5806 94.6865 76.5806 94.8303 76.5806C95.3581 76.5806 95.8642 76.5951 96.3871 76.6768C97.4063 76.8361 98.3988 77.1376 99.4184 77.2908C99.6405 77.3242 99.8643 77.3507 100.089 77.3507C100.186 77.3507 100.501 77.4084 100.58 77.3336C100.631 77.2845 100.597 77.0705 100.597 77.0042C100.597 76.8479 100.636 76.7731 100.461 76.7731C99.9791 76.7731 99.4697 76.7705 98.9932 76.7111C98.6187 76.6644 98.2393 76.5663 97.8679 76.495C97.4848 76.4215 97.1142 76.4298 96.7256 76.4265C95.8413 76.4192 94.9551 76.388 94.0688 76.388C93.6323 76.388 93.1958 76.388 92.7594 76.388C92.6406 76.388 92.5207 76.3834 92.4019 76.388C92.2908 76.3924 92.2001 76.5084 92.0973 76.5506C91.7528 76.6922 91.359 76.5999 91.0015 76.5806C90.5642 76.5569 90.1527 76.3122 89.726 76.2746C89.1203 76.2214 88.5088 76.1481 87.8963 76.1976C87.4203 76.2361 86.9466 76.234 86.4663 76.234C86.1392 76.234 85.8122 76.2247 85.4932 76.3089C85.4282 76.326 85.2662 76.3425 85.3832 76.4051C85.7035 76.5766 86.0738 76.6225 86.4324 76.6555C86.7557 76.6852 87.0975 76.8075 87.4224 76.771C87.7154 76.7381 87.9965 76.6961 88.2939 76.6961C88.6187 76.6961 88.9526 76.7295 89.267 76.6405C89.368 76.6119 89.472 76.6191 89.5758 76.6191C90.1194 76.6191 90.6615 76.6242 91.2046 76.649C91.3319 76.6549 91.4606 76.6939 91.5558 76.5977C91.6874 76.4646 91.9185 76.4983 92.0888 76.4651C92.3788 76.4084 92.5903 76.1699 92.8884 76.0971C93.6349 75.9148 94.4073 76.08 95.1603 76.08C95.4003 76.08 95.6418 76.0886 95.8816 76.0778C96.0496 76.0703 96.1974 76.0063 96.3702 76.0029C96.5595 75.9992 96.7228 75.9629 96.9054 75.9259C97.0397 75.8988 97.4451 75.8694 97.3094 75.8511C96.859 75.7903 96.3722 75.8563 95.9175 75.8404C95.3307 75.8197 94.7811 75.7028 94.2041 75.6264C93.9394 75.5914 93.6359 75.5623 93.3834 75.4831C92.4139 75.1788 91.3774 75.0385 90.3839 74.8306C89.5445 74.6549 88.6305 74.4841 87.837 74.1631C87.1484 73.8845 86.4318 73.6371 85.6773 73.6176C85.1713 73.6044 84.5909 73.7061 84.1035 73.5577C83.7686 73.4557 83.4323 73.3579 83.0987 73.2517C82.9893 73.2169 82.8121 73.122 82.6841 73.1148C82.6074 73.1105 82.533 73.1019 82.4726 73.1533C82.4396 73.1814 82.3241 73.1724 82.3203 73.1811C82.2787 73.2756 82.3187 73.4021 82.1849 73.4058C81.8424 73.4151 81.5012 73.3578 81.1611 73.3437C80.4885 73.316 79.9537 72.8235 79.2911 72.8067C79.0721 72.8012 78.8156 72.9128 78.6565 73.0635C78.6302 73.0884 78.5878 73.1812 78.5529 73.1918C78.513 73.2039 78.4423 72.8961 78.4387 72.8816C78.4345 72.8655 78.3741 72.5365 78.335 72.5629C78.2322 72.6322 78.1534 72.8517 78.0981 72.9565C78.0708 73.0082 77.9434 73.3953 77.8358 73.2517C77.8081 73.2148 77.7781 73.003 77.8633 73.0891C77.9963 73.2237 77.9078 73.8265 77.9035 74.0305C77.8902 74.6593 77.675 75.2715 77.675 75.9045C77.675 76.0851 77.5989 76.2453 77.5989 76.4265C77.5989 76.4707 77.5811 76.5587 77.6031 76.5977C77.6312 76.6473 77.8768 76.6367 77.9035 76.6383C78.151 76.6538 78.3981 76.6576 78.646 76.6576C79.047 76.6576 79.4486 76.6642 79.8496 76.6576C79.9445 76.656 80.0437 76.5771 80.133 76.5442C80.4818 76.416 80.9036 76.4665 81.2668 76.4351C81.7025 76.3975 82.1411 76.5036 82.5783 76.5036C82.7882 76.5036 82.9744 76.4651 83.1854 76.4651C83.6133 76.4651 83.981 76.5464 84.3954 76.6383C84.5602 76.6749 85.1737 76.8077 85.2436 76.5335C85.3217 76.2277 84.8556 75.9779 84.6492 75.8789C84.3147 75.7184 83.9601 75.6786 83.6106 75.5708C83.3705 75.4967 83.1349 75.4045 82.8956 75.3269C82.535 75.2099 82.1506 75.2025 81.7851 75.098C81.0506 74.8881 80.1053 74.5606 79.7375 73.8165C79.6509 73.6415 79.6515 73.5876 79.4646 73.701C79.2926 73.8054 79.1344 73.8976 78.9781 74.0219C78.8319 74.138 78.8533 73.9789 78.8088 73.8615C78.6059 73.3256 78.5783 74.1042 78.5508 74.2872C78.4934 74.6687 78.4202 75.0563 78.4006 75.4424C78.3861 75.7283 78.533 75.8058 78.7898 75.8831C79.6052 76.1288 79.4474 74.5088 79.3123 74.1118C79.2501 73.9291 79.0194 74.7532 79.0119 74.7878C78.9719 74.9715 78.7647 75.6753 79.1029 75.6885C79.3602 75.6985 79.897 75.6905 80.0103 75.3954C80.1297 75.0846 80.0155 74.7177 79.9998 74.3984C79.9897 74.1955 79.955 74.2011 79.875 74.4027C79.7307 74.7658 79.6441 75.2123 79.7015 75.605C79.7297 75.7983 79.9531 75.8104 80.1076 75.8104C80.3196 75.8104 80.265 75.2504 80.3107 75.0959C80.4064 74.7722 80.5524 74.4713 80.7169 74.1802C80.7602 74.1035 80.6238 74.3298 80.5815 74.407C80.4348 74.6748 80.3481 74.9562 80.2917 75.2563C80.2793 75.3223 80.2632 75.3882 80.2599 75.4553C80.2562 75.5316 80.2634 75.6079 80.3572 75.5408C80.6204 75.3528 80.8539 74.9946 80.9918 74.7065C81.1076 74.4648 81.2441 74.0286 81.0997 73.7609C81.065 73.6964 80.4955 74.2507 80.4546 74.2957C80.3227 74.4409 80.1056 75.0006 80.188 74.822C80.3155 74.5458 80.5765 74.2835 80.5349 73.9534C80.531 73.9221 80.3565 73.5465 80.3192 73.6197C80.2807 73.6951 80.3046 73.8454 80.3128 73.9171C80.3545 74.2797 80.4406 74.647 80.5328 74.9996C80.6018 75.2632 80.6931 75.5314 80.9495 75.6628C81.1554 75.7683 81.4999 75.8633 81.7301 75.8018C82.1218 75.6973 82.1153 75.0892 82.0834 74.775C82.047 74.4176 81.7688 74.1066 81.4107 74.0732C80.8436 74.0204 80.8039 75.2467 80.9622 75.2627C81.4197 75.309 82.1315 75.1237 82.4155 74.7407C82.5428 74.5691 82.5487 74.406 82.5487 74.2016C82.5487 73.9288 82.326 74.3909 82.3118 74.4284C82.2268 74.653 82.1581 74.917 82.1024 75.1472C82.0767 75.2533 81.9711 75.6357 82.0072 75.7912C82.0827 76.1167 82.7487 75.5918 82.8195 75.5237C83.108 75.2465 83.6722 74.3624 83.2172 73.9748C83.0984 73.8737 82.9411 73.9874 82.8554 74.069C82.5942 74.3177 82.5307 74.6798 82.5255 75.0274C82.5225 75.2233 82.5314 75.4473 82.6333 75.6221C82.6903 75.72 82.7707 75.7597 82.7772 75.6221C82.7986 75.1676 82.8183 74.6744 82.7687 74.223C82.7653 74.192 82.7553 74.0776 82.7031 74.0732C82.5996 74.0645 82.7083 74.2874 82.7454 74.3856C82.9133 74.8295 83.3259 74.8768 83.7502 74.8841C84.71 74.9005 85.721 74.9625 86.6694 74.7707C86.8166 74.7409 86.9588 74.7168 87.103 74.6744C87.1778 74.6525 87.2538 74.6357 87.3293 74.6166C87.3835 74.603 87.5335 74.6051 87.4901 74.5696C87.3715 74.4725 86.9415 74.4057 86.8449 74.3835C86.3702 74.2741 85.8893 74.1835 85.4023 74.1588C85.1988 74.1485 85.0141 74.1295 84.8163 74.0711C84.6931 74.0347 84.5191 73.9091 84.3933 73.8957C84.217 73.8769 84.1592 74.1277 84.1564 74.253C84.1472 74.6548 84.8449 74.7667 85.1104 74.8284C86.1188 75.0628 87.1494 75.1798 88.1586 75.4168C88.8062 75.5688 89.4779 75.6276 90.1089 75.8446C90.5152 75.9844 90.9039 76.18 91.321 76.2875C91.3427 76.2931 91.8235 76.3674 91.8223 76.3495C91.8211 76.3317 91.7956 76.3257 91.78 76.3174C91.6526 76.2496 91.2793 76.0844 91.2025 76.05C90.7121 75.8305 90.2432 75.624 89.7091 75.5473C89.2027 75.4745 88.6928 75.4431 88.1882 75.3547C87.338 75.2058 86.4983 75.0369 85.6392 74.9418C85.5612 74.9332 84.683 74.7718 84.516 74.8563C84.4133 74.9082 84.7413 74.9007 84.8544 74.9204C85.3502 75.0067 85.4168 75.0171 85.9586 75.1215C86.624 75.2498 87.3002 75.4412 87.9809 75.4638C88.3867 75.4773 88.7977 75.4686 89.2035 75.4553C89.9791 75.4298 90.7834 75.3693 91.56 75.4275C91.9557 75.4571 92.3463 75.5611 92.7403 75.6093C93.6357 75.7188 90.9527 75.3654 90.0581 75.2499C88.8771 75.0974 87.7217 74.8422 86.5636 74.561C86.2709 74.49 86.0468 74.4004 85.7852 74.2701C85.3579 74.0572 85.6733 74.541 85.7005 74.7664C85.7224 74.9469 85.6963 75.1121 85.673 75.2884C85.6418 75.5251 86.4686 75.4253 86.5996 75.4253C86.9015 75.4253 87.1765 75.4338 87.4732 75.4938C87.5587 75.5111 87.751 75.4731 87.727 75.558C87.7068 75.6294 87.5805 75.5742 87.507 75.5729C87.2392 75.5683 86.9898 75.552 86.7201 75.5302C86.1658 75.4853 85.6138 75.4197 85.0617 75.3526C84.592 75.2955 84.8457 75.3252 85.0575 75.3654C85.7127 75.4899 86.3455 75.6868 87.0078 75.789C87.644 75.8872 88.3703 75.869 88.9878 75.6735C89.3946 75.5446 89.7692 75.3272 90.1406 75.1194C90.488 74.925 90.8107 74.78 91.1538 75.0402" stroke="#204BE2" stroke-linecap="round" stroke-linejoin="round"/>
<path d="M89.4024 9.1523C89.7696 9.21421 89.2546 9.70654 89.1739 9.44111C89.1552 9.3796 89.1648 9.11788 89.1274 9.08384C89.0883 9.04827 89.0183 9.06429 89.1781 9.0924C89.4252 9.13586 89.6599 9.1523 89.91 9.1523C90.1878 9.1523 90.4657 9.1523 90.7435 9.1523C91.1849 9.1523 91.6263 9.1523 92.0677 9.1523C92.308 9.1523 91.6003 9.26772 91.3717 9.3427C91.3324 9.35561 90.9105 9.42096 91.0523 9.47962C91.3552 9.60496 91.7616 9.53738 92.0846 9.53738C92.3261 9.53738 92.5166 9.51798 92.7488 9.44325C93.0186 9.35642 93.3209 9.38803 93.5991 9.3534C93.9437 9.3105 94.3099 9.34484 94.6568 9.34484C95.1264 9.34484 95.596 9.34484 96.0656 9.34484C96.1559 9.34484 96.2461 9.34484 96.3364 9.34484C96.6558 9.34484 95.6975 9.34484 95.3781 9.34484C94.7946 9.34484 94.1566 9.27898 93.5801 9.40474C93.4859 9.4253 92.8779 9.56723 93.0745 9.72993C93.3448 9.95355 93.8742 9.94975 94.1999 9.99093C94.482 10.0266 94.7561 10.038 95.0397 10.038C95.4289 10.038 95.7839 10.151 96.1671 10.2006C96.6828 10.2673 97.1696 10.3076 97.6902 10.3076C97.7594 10.3076 98.6411 10.3397 98.6125 10.2455C98.5505 10.042 98.1029 10.0173 97.9461 9.98451C97.7818 9.95018 97.608 9.91215 97.4406 9.89252C97.2377 9.86872 97.0267 9.88396 96.8229 9.88396C96.6156 9.88396 96.5834 9.88121 96.6769 9.6743C96.8242 9.34847 97.112 9.38335 97.4321 9.38335C98.3683 9.38335 99.302 9.45036 100.241 9.41972C100.3 9.41781 101.197 9.37964 101.197 9.37479C101.21 9.24866 99.8526 9.24759 99.6447 9.27638C99.4467 9.30382 98.8312 9.5315 98.7732 9.75132C98.6633 10.1683 99.2283 10.1556 99.4882 10.222C99.8293 10.3091 100.175 10.2324 100.52 10.2712C100.572 10.277 100.776 10.3544 100.622 10.376C100.16 10.4409 99.6839 10.4137 99.2196 10.4445C99.0788 10.4538 97.9934 10.4 98.0456 10.6712C98.1257 11.088 99.2651 10.9739 99.5453 10.9601C99.8155 10.9467 100.079 10.9203 100.351 10.9237C101.125 10.9333 101.891 11.2082 102.648 11.3387C103.442 11.4754 104.219 11.7055 105.016 11.8244C105.293 11.8657 105.576 11.8465 105.855 11.8714C106.279 11.9092 106.689 12.001 107.103 12.0918C107.487 12.1759 107.868 12.1334 108.246 12.2501C108.44 12.3103 108.632 12.3769 108.825 12.4426C109.087 12.5317 109.36 12.5431 109.625 12.6181C110.194 12.7791 110.789 12.8533 111.368 12.9732C111.965 13.0969 112.565 12.9997 113.16 13.1593C114.009 13.3874 114.889 13.3634 115.73 13.6278C115.822 13.657 116.565 14.0059 116.627 13.8653C116.665 13.7778 116.726 13.6513 116.787 13.5893C116.868 13.5079 116.888 13.263 116.976 13.538C117.097 13.92 117.203 14.2873 117.363 14.6547C117.412 14.7675 117.317 14.5119 117.314 14.4643C117.253 13.5454 117.312 12.607 117.312 11.6853C117.312 11.072 117.312 10.4587 117.312 9.84545C117.312 9.67824 117.294 9.5348 117.369 9.38335C117.38 9.36208 117.448 9.19696 117.494 9.23787C117.594 9.32687 117.228 9.26782 117.094 9.26782C116.684 9.26782 116.275 9.26782 115.865 9.26782C115.516 9.26782 115.182 9.20757 114.835 9.19295C114.12 9.16281 113.413 9.11379 112.696 9.11379C111.274 9.11379 109.832 9.04572 108.415 9.14374C107.889 9.18011 107.353 9.1523 106.826 9.1523C106.433 9.1523 106.029 9.11531 105.644 9.21006C105.332 9.28685 105.008 9.34484 104.688 9.34484C104.086 9.34484 103.487 9.38335 102.885 9.38335C102.428 9.38335 101.944 9.42462 101.489 9.36623C101.266 9.33753 101.069 9.26782 100.844 9.26782C100.686 9.26782 100.578 9.23911 100.529 9.4133C100.46 9.65719 100.561 9.80457 100.787 9.8968C100.982 9.9766 101.181 9.96098 101.388 9.96098C101.818 9.96098 102.248 9.96098 102.678 9.96098C103.55 9.96098 104.421 9.96098 105.293 9.96098C107.72 9.96098 110.147 9.96098 112.574 9.96098C113.411 9.96098 114.247 9.96098 115.084 9.96098C115.349 9.96098 115.606 9.98197 115.857 9.88396C116.001 9.82768 116.13 9.80694 116.284 9.80694C116.538 9.80694 116.49 9.96489 116.512 10.2091C116.532 10.4252 116.55 10.6296 116.55 10.8467C116.55 11.0656 116.55 11.2845 116.55 11.5035C116.55 11.882 116.665 12.2484 116.665 12.633C116.665 12.7144 116.698 12.9119 116.639 12.9732C116.461 13.1608 116.21 13.125 115.975 13.1165C115.399 13.0957 114.843 12.9247 114.279 12.8192C113.781 12.7261 113.286 12.6917 112.789 12.5881C112.061 12.4363 111.336 12.2729 110.606 12.1239C110.035 12.0072 109.452 11.8649 108.876 11.7794C107.782 11.6172 106.696 11.4818 105.612 11.2339C105.162 11.1311 104.706 11.0727 104.254 10.9836C103.91 10.9159 103.586 10.8133 103.232 10.8082C102.622 10.7992 102.016 10.8189 101.407 10.7697C101.216 10.7542 101.05 10.695 100.91 10.5579C100.664 10.3185 101.043 10.1114 101.24 10.0679C101.806 9.9424 102.376 9.96961 102.951 9.95884C103.427 9.94991 103.889 9.87158 104.362 9.82406C105.015 9.75837 105.667 9.76843 106.323 9.76843C106.878 9.76843 107.447 9.72916 107.996 9.82406C108.632 9.93405 109.323 10.115 109.97 10.115C110.594 10.115 111.221 10.1295 111.846 10.1129C112.906 10.0847 113.994 9.98772 115.046 10.1706C115.279 10.2111 115.677 10.2304 115.848 10.4231C116.029 10.6268 115.864 11.1143 115.971 11.3772C116.046 11.5628 116.103 11.7867 116.129 11.9848C116.155 12.1808 116.181 12.3539 115.962 12.3785C115.225 12.4613 114.502 12.1647 113.773 12.1046C113.522 12.0839 113.273 12.0866 113.022 12.0789C112.729 12.07 112.446 12.0019 112.151 12.0019C111.435 12.0019 110.733 11.8771 110.039 11.711C109.717 11.6338 109.345 11.5398 109.013 11.5398C108.62 11.5398 108.239 11.5159 107.848 11.4542C107.228 11.3565 106.646 11.1217 106.025 11.0307C105.64 10.9744 105.259 10.8639 104.878 10.7868C104.511 10.7124 104.559 10.5807 104.92 10.5472C106.203 10.4281 107.481 10.5771 108.764 10.5771C109.973 10.5771 111.182 10.6156 112.39 10.6156C113.156 10.6156 113.918 10.8114 114.685 10.8467C114.926 10.8577 115.144 11.3308 115.29 11.4949C115.531 11.7662 115.262 11.8245 114.96 11.8393C113.859 11.8935 112.807 11.3858 111.708 11.3858C111.176 11.3858 110.644 11.3858 110.111 11.3858C109.87 11.3858 109.673 11.4075 109.453 11.3088C109.381 11.2764 109.573 11.1908 109.65 11.1761C109.976 11.1147 110.311 11.1174 110.64 11.0991C111.113 11.0728 111.579 11.0139 112.049 10.9622C112.807 10.8789 113.574 10.8692 114.336 10.8467C114.481 10.8424 115.344 10.7161 115.408 10.8467" stroke="#204BE2" stroke-linecap="round" stroke-linejoin="round"/>
<rect width="29.0168" height="63.7478" transform="matrix(0.98488 0.173238 -0.16948 0.985534 88.655 9.07221)" fill="#204BE2"/>
<line x1="77" y1="77.375" x2="107" y2="77.375" stroke="#204BE2"/>
<line x1="88" y1="8.60227" x2="118" y2="8.60227" stroke="#204BE2"/>
<line y1="-0.5" x2="70.8083" y2="-0.5" transform="matrix(-0.169472 0.985535 -0.984881 -0.17323 88 8.09091)" stroke="#204BE2"/>
<line y1="-0.5" x2="70.8083" y2="-0.5" transform="matrix(-0.169472 0.985535 -0.984881 -0.17323 118 8.09091)" stroke="#204BE2"/>
</svg>
